# xmcd
#
# Track frame offsets:
#	150
#	19654
#	41554
#	64734
#	84377
#	98121
#	118701
#	134994
#	153182
#	170380
#	186932
#	206135
#	228020
#	247869
#	266239
#	279413
#	295573
#
# Disc length: 4137
#
# Revision: 2
# Processed by: cddbd v1.5.1PL0 Copyright (c) Steve Scherf et al.
# Submitted via: EasyCDDAExtractor 4.6.0.1
# Normalized: r0:TRMNUM;r1:TRMNUM,TDELIM( - )
#
DISCID=eb102711
DTITLE=The Wash - OST
DYEAR=2001
DGENRE=RAP
TTITLE0=Dr. Dre and Snoop Dogg - On The Blvd
TTITLE1=Truth Hurts Feat Shaunta - Benefit Of The Doubt
TTITLE2=D12 - Blow My Buzz
TTITLE3=Bilal - Bring 2
TTITLE4=Dr. Dre and Knoc-Turn'al - Bad Intentions
TTITLE5=Xzibit - Get Fucked Up With Me
TTITLE6=Yero - My High
TTITLE7=Busta Rhymes - Holla
TTITLE8=Bubba Sparxxx - Bubba Talk
TTITLE9=Shaunta - Good Lovin'
TTITLE10=Daks Feat R.c. - Riding High
TTITLE11=Soopafly - Gotta Get Dis Money
TTITLE12=Ox - Dont Talk Shit
TTITLE13=Toi - Everytime
TTITLE14=Knoc-Turn'al - Str8 West Coast
TTITLE15=Joe Beast - No
TTITLE16=Dr. Dre and Snoop Dogg - The Wash
EXTD=YEAR: 2001 ID3G: 7
EXTT0=
EXTT1=
EXTT2=
EXTT3=
EXTT4=
EXTT5=
EXTT6=
EXTT7=
EXTT8=
EXTT9=
EXTT10=
EXTT11=
EXTT12=
EXTT13=
EXTT14=
EXTT15=
EXTT16=
PLAYORDER=
